<svg width="28" height="28" viewBox="0 0 28 28" fill="none" xmlns="http://www.w3.org/2000/svg">
<path d="M13.4166 16.3333C18.249 16.3333 22.1666 18.1614 22.1666 20.4166V23.3333H4.66663V20.4166C4.66663 18.1614 8.58429 16.3333 13.4166 16.3333ZM21 20.4166C21 18.8066 17.605 17.4999 13.4166 17.4999C9.22829 17.4999 5.83329 18.8066 5.83329 20.4166V22.1666H21V20.4166ZM13.4166 5.83325C14.4996 5.83325 15.5382 6.26346 16.304 7.02923C17.0698 7.79501 17.5 8.83362 17.5 9.91658C17.5 10.9996 17.0698 12.0382 16.304 12.8039C15.5382 13.5697 14.4996 13.9999 13.4166 13.9999C12.3337 13.9999 11.295 13.5697 10.5293 12.8039C9.7635 12.0382 9.33329 10.9996 9.33329 9.91658C9.33329 8.83362 9.7635 7.79501 10.5293 7.02923C11.295 6.26346 12.3337 5.83325 13.4166 5.83325ZM13.4166 6.99992C12.6431 6.99992 11.9012 7.30721 11.3542 7.85419C10.8073 8.40117 10.5 9.14304 10.5 9.91658C10.5 10.6901 10.8073 11.432 11.3542 11.979C11.9012 12.526 12.6431 12.8333 13.4166 12.8333C14.1902 12.8333 14.932 12.526 15.479 11.979C16.026 11.432 16.3333 10.6901 16.3333 9.91658C16.3333 9.14304 16.026 8.40117 15.479 7.85419C14.932 7.30721 14.1902 6.99992 13.4166 6.99992Z" fill="white" fill-opacity="0.16"/>
</svg>
